<?xml version="1.0" encoding="UTF-8" standalone="no"?>
<!-- Created with Inkscape (http://www.inkscape.org/) -->

<svg
   xmlns:dc="http://purl.org/dc/elements/1.1/"
   xmlns:cc="http://creativecommons.org/ns#"
   xmlns:rdf="http://www.w3.org/1999/02/22-rdf-syntax-ns#"
   xmlns:svg="http://www.w3.org/2000/svg"
   xmlns="http://www.w3.org/2000/svg"
   xmlns:sodipodi="http://sodipodi.sourceforge.net/DTD/sodipodi-0.dtd"
   xmlns:inkscape="http://www.inkscape.org/namespaces/inkscape"
   version="1.1"
   width="1279"
   height="1361"
   id="svg2"
   inkscape:version="0.48.3 r9882"
   sodipodi:docname="HacDC-logo_only.svg">
  <sodipodi:namedview
     pagecolor="#ffffff"
     bordercolor="#666666"
     borderopacity="1"
     objecttolerance="10"
     gridtolerance="10"
     guidetolerance="10"
     inkscape:pageopacity="0"
     inkscape:pageshadow="2"
     inkscape:window-width="640"
     inkscape:window-height="480"
     id="namedview7241"
     showgrid="false"
     inkscape:zoom="0.10419466"
     inkscape:cx="470.54514"
     inkscape:cy="1764.0917"
     inkscape:window-x="0"
     inkscape:window-y="0"
     inkscape:window-maximized="0"
     inkscape:current-layer="svg2"
     fit-margin-top="0"
     fit-margin-left="0"
     fit-margin-right="0"
     fit-margin-bottom="0" />
  <defs
     id="defs4" />
  <metadata
     id="metadata7">
    <rdf:RDF>
      <cc:Work
         rdf:about="">
        <dc:format>image/svg+xml</dc:format>
        <dc:type
           rdf:resource="http://purl.org/dc/dcmitype/StillImage" />
        <dc:title></dc:title>
      </cc:Work>
    </rdf:RDF>
  </metadata>
  <rect
     style="fill:#ffffff;fill-opacity:1;fill-rule:evenodd;stroke:none"
     id="rect7384"
     width="1257.2621"
     height="1324.444"
     x="9.5974207"
     y="-1.8336947" />
  <path
     inkscape:connector-curvature="0"
     style="fill:#000000"
     id="path3054"
     d="M 0,680.5 0,0 639.5,0 1279,0 l 0,680.5 0,680.5 -639.5,0 -639.5,0 z m 166.8333,620.6824 c -0.1833,-0.4497 -5.9576,-5.7372 -12.8318,-11.75 -35.8647,-31.3706 -67.293,-65.925 -88.5763,-97.3869 L 57,1179.591 l 0,61.2045 0,61.2045 55.0833,0 55.0834,0 z M 366,1301.2007 c 0,-0.4396 -1.77359,-5.9521 -3.94131,-12.25 C 352.59813,1261.4649 346.4268,1235.1431 343.5481,1210 l -1.5457,-13.5 -0.001,-15.2156 -10e-4,-15.2156 1.5261,-11.2844 c 1.9663,-14.5399 3.8213,-23.0314 7.59878,-34.7844 l 3.05333,-9.5 6.42215,-13 6.42216,-13 6.44895,-9 c 8.34323,-11.6436 20.38115,-24.567 29.34163,-31.5 3.90965,-3.025 7.11565,-5.725 7.12443,-6 0.009,-0.275 -5.48606,-3.4955 -12.21076,-7.1567 l -12.22674,-6.6567 -4.5,-1.2073 -4.5,-1.2074 -13.5,0.6855 c -29.36243,1.491 -56.31963,6.3285 -81.01963,14.5391 l -14.5197,4.8265 -10.7443,5.0298 c -21.4327,10.0335 -38.0923,21.5342 -54.8301,37.8512 l -10.6136,10.3468 -3.1012,6.7281 -3.1011,6.728 -3.4473,14.4965 c -4.1392,17.4069 -7.1706,36.0507 -8.6168,52.9966 l -1.0667,12.5 0.017,24.5 0.017,24.5 1.0569,13 1.0569,13 1.2067,1.1003 c 9.2601,8.444 33.301,27.1596 41.6787,32.4465 l 5.472,3.4532 18.528,0.5434 c 10.1904,0.2988 42.4905,0.6363 71.778,0.75 l 53.2496,0.2066 0,-0.7993 z m 247,0.03 c 0,-0.4228 -4.53257,-5.2603 -10.07238,-10.75 -46.27169,-45.853 -73.87081,-89.7397 -84.57136,-134.4812 l -2.51122,-10.5 -0.55089,-17.5089 -0.55089,-17.509 1.5853,-9.991 c 1.86565,-11.7579 5.56965,-25.0116 9.70751,-34.7354 1.63016,-3.8308 2.96393,-7.3259 2.96393,-7.7668 l 0,-0.8017 -1.75,0.383 c -0.9625,0.2106 -7.29299,0.8244 -14.06776,1.3641 l -12.31776,0.9811 -5.18224,2.3868 c -17.75492,8.1774 -52.1498,34.1502 -73.17214,55.255 -19.19435,19.2697 -31.58742,36.1527 -43.07545,58.6814 l -6.49577,12.7387 -3.91642,11.7613 c -2.15404,6.4688 -4.21209,14.0397 -4.57345,16.8243 l -0.65703,5.0629 1.67127,8.4371 c 3.71471,18.753 13.52218,51.6913 20.02608,67.2573 l 1.53751,3.6798 112.98658,0 112.98658,0 z m 288.7906,-4.84 c 56.4648,-34.901 104.3744,-79.7968 148.215,-138.8912 49.547,-66.7864 91.8452,-151.5901 118.0499,-236.6783 15.8546,-51.4808 24.0987,-97.34342 27.0311,-150.37526 l 1.1583,-20.94644 -0.5597,-43 -0.5597,-43 -1.5393,-19 c -1.9945,-24.61678 -4.6979,-50.74912 -6.1295,-59.25 l -0.5473,-3.25 -273.4547,0 -273.4547,0 0.0165,0.75 c 0.009,0.4125 3.95708,6.15 8.77331,12.75 28.37624,38.88581 49.86323,80.10303 59.64574,114.41486 3.86252,13.54768 6.98104,30.69126 8.65366,47.57213 l 1.18772,11.987 -0.59276,19.513 L 717.09144,808.5 715.5414,820 c -9.16486,67.9958 -37.82608,130.3607 -81.63492,177.632 l -9.14523,9.868 -1.80478,4 c -2.54166,5.6332 -10.38576,31.2375 -15.01158,49 -9.40518,36.1146 -15.04148,72.2791 -16.5203,106 l -0.65782,15 1.17933,17 1.17933,17 2.42568,13.1565 c 1.33412,7.2361 3.86663,17.8111 5.62779,23.5 l 3.20211,10.3435 5.52809,6.8785 c 5.43957,6.7684 17.20804,18.0573 28.17156,27.0236 l 5.58065,4.564 26.41935,0.3625 c 14.53064,0.1994 70.8751,0.2422 125.20991,0.095 l 98.79053,-0.2674 7.7095,-4.7652 z M 1220,1073.3333 c 0,-125.7666 -0.1776,-228.4791 -0.3946,-228.25 -0.2171,0.2292 -1.1559,4.2417 -2.0864,8.9167 -13.3848,67.2537 -38.6131,141.1661 -68.7773,201.5 -51.852,103.7133 -111.8059,180.8274 -184.6026,237.4398 l -10.3284,8.0322 32.3447,0.2784 c 17.7895,0.153 77.6821,0.3843 133.0946,0.5139 L 1220,1302 z M 153.6065,1211.7468 153.713,1179.5 155.4103,1165 c 2.2741,-19.4268 5.77,-38.1865 10.109,-54.2469 l 3.5806,-13.2531 4.5782,-11.5 c 8.4953,-21.339 17.9966,-38.4013 29.7703,-53.4609 l 6.285,-8.0391 10.9174,-10.5 10.9173,-10.5 9.466,-6.7156 9.4659,-6.7156 11.5855,-6.0096 c 14.7003,-7.6254 26.3835,-12.1035 40.9145,-15.6825 6.325,-1.5578 11.6689,-2.9362 11.8753,-3.0632 0.2064,-0.1269 -1.9679,-3.3916 -4.8318,-7.2548 -2.8639,-3.8632 -8.9103,-13.4443 -13.4364,-21.2913 l -8.2292,-14.2674 -3.939,-2.2302 C 271.0468,912.6873 234.3571,902.82 209.0282,899.9889 l -9.4717,-1.0587 -16.5283,-0.042 -16.5282,-0.042 -11,1.4957 c -10.3778,1.4111 -28.0829,5.4088 -34.1203,7.7042 -3.5882,1.3643 -17.6256,13.3243 -25.4276,21.6646 -12.4596,13.3194 -26.9111,33.3706 -35.885,49.7897 l -3.2793,6 -0.3653,58 -0.3652,58 0.9309,6 0.9311,6 6.4804,13 c 14.8734,29.8364 33.81,58.63 53.9286,82 6.4339,7.4737 33.8007,35.5022 34.6588,35.4968 0.2821,0 0.5608,-14.5143 0.6194,-32.25 z m 370.5805,-187.2358 1.687,-0.6766 -7.31807,-6.3825 c -4.02494,-3.5103 -10.79791,-10.1105 -15.05104,-14.6671 l -7.73297,-8.2848 -5.9826,-8.8554 c -3.29043,-4.8704 -7.76346,-12.5667 -9.94007,-17.1029 l -3.95748,-8.2476 -2.50158,-8.8971 -2.50158,-8.897 -0.59145,-11.75 -0.59144,-11.75 -4.60286,0.062 c -2.53157,0.034 -7.77611,0.3808 -11.65452,0.7705 l -7.05165,0.7087 -4.70383,3.8545 -4.70383,3.8544 -5.4943,7.3002 -5.49431,7.3002 -4.03723,8.3249 c -2.22048,4.5786 -4.96372,11.36 -6.09609,15.0698 l -2.05885,6.7449 2.58834,9.0234 c 2.72667,9.5057 6.0265,16.7936 10.67359,23.5733 l 2.80112,4.0867 10.32142,4.1111 c 12.02936,4.7914 26.41006,8.6547 39.80728,10.6942 l 9.5,1.4462 16.5,-0.3686 c 9.075,-0.2028 17.25915,-0.6731 18.187,-1.0452 z m 37.16803,-13.0033 c 10.53891,-5.3117 22.13989,-12.9512 33.26801,-21.9076 7.97254,-6.4166 29.575,-28.2331 31.47911,-31.791 l 0.96822,-1.8091 -6.28519,-0.01 c -3.45685,0 -10.56205,-0.6506 -15.78934,-1.4386 l -9.50415,-1.4328 -7.99585,-2.549 -7.99584,-2.5489 -9,-5.26 -9,-5.2599 -11.06414,-11.0025 -11.06414,-11.0024 -7.22816,-10.8667 c -3.97549,-5.9767 -8.34171,-13.0642 -9.70271,-15.75 -1.361,-2.6858 -2.67571,-4.8833 -2.92158,-4.8833 -0.24586,0 -2.26734,1.9125 -4.49217,4.25 l -4.04515,4.25 -3.91456,7.7131 -3.91456,7.7131 -1.82642,7.7869 -1.82641,7.7869 0,20 0,20 1.35185,3.8236 1.35185,3.8236 5.84034,7.7508 c 6.81426,9.0432 16.2875,18.194 27.48527,26.5497 4.38388,3.2712 9.32069,6.9626 10.97069,8.203 1.65,1.2405 3.675,2.2699 4.5,2.2877 0.825,0.018 5.48476,-1.9761 10.35503,-4.4307 z M 399.6163,993.1882 c -0.27595,-0.4465 -1.44088,-5.4203 -2.58873,-11.0529 l -2.08699,-10.2411 -0.032,-9.6971 -0.032,-9.6971 1.9916,-7.6357 1.9916,-7.6356 3.46107,-6.8644 c 1.90358,-3.7753 5.95442,-10.3363 9.00187,-14.5799 l 5.5408,-7.7156 -11.51756,-8.5344 -11.51755,-8.5344 -7.30882,0 -7.30883,0 -6.85533,2.0878 c -3.77044,1.1483 -8.76919,3.193 -11.10835,4.5439 l -4.25301,2.4561 -3.52197,5.2061 -3.52198,5.2061 -1.94949,6.2727 c -1.07223,3.45 -2.24333,9.1402 -2.60233,12.6449 l -0.6529,6.3723 0.7279,7.7674 0.7279,7.7674 9.67144,9.5877 c 5.31932,5.2732 13.24997,12.2763 17.62366,15.5624 C 384.00428,984.37 398.1539,994 399.2465,994 l 0.87153,0 z M 73.3286,926.5 C 103.6122,890.3516 139.5456,867.1737 178,858.9846 l 10.5,-2.2361 16.4557,-0.5097 16.4556,-0.5098 10.0444,1.2421 c 10.9377,1.3527 23.1935,3.9563 33.8474,7.1907 3.7417,1.1359 6.9026,1.9017 7.0241,1.7017 0.1215,-0.1999 -0.034,-6.8885 -0.3462,-14.8635 l -0.567,-14.5 -2.0593,-4.5 -2.0594,-4.5 -9.1666,-11.5 -9.1666,-11.5 -11.7311,-11.86063 c -13.9949,-14.1495 -27.5162,-25.25378 -43.4938,-35.719 l -11.7628,-7.70455 -12.2856,-6.04441 -12.2855,-6.0444 -13.4517,-4.47786 c -7.3984,-2.46282 -17.4314,-5.26138 -22.2956,-6.21903 l -8.8441,-1.74117 -6.4392,1.18647 c -9.4772,1.74624 -21.2136,6.30957 -35.8727,13.94794 l -13,6.77387 -0.6001,37.45139 c -0.33,20.59826 -0.3693,65.64068 -0.087,100.09418 l 0.5128,62.6428 5.4883,-7.1428 C 65.8326,935.7143 70.5643,929.8 73.3289,926.5 z m 562.90941,7.319 6.73801,-1.135 1.49066,-1.6472 c 2.79899,-3.0928 15.19675,-28.5354 20.35569,-41.7737 2.83207,-7.2674 6.77735,-18.7105 8.76729,-25.4291 3.66052,-12.3589 8.77972,-34.79795 8.09496,-35.48271 -0.2048,-0.2048 -4.60512,1.61449 -9.77849,4.04287 C 666.73276,834.82253 657.1,838.6034 650.5,840.7962 l -12,3.9867 -10,1.8581 -10,1.8581 -16,-0.018 -16,-0.018 -7.5,-1.6586 c -4.125,-0.9122 -11.40369,-3.0716 -16.17486,-4.7987 l -8.67487,-3.1401 -6.65849,-4.0159 c -3.66217,-2.20875 -6.89574,-3.77867 -7.18571,-3.4887 -0.28997,0.28997 -1.00017,3.815 -1.57821,7.8333 l -1.051,7.3061 3.26012,11.5 c 5.75062,20.2852 14.16419,38.3407 24.7714,53.1594 l 5.48258,7.6593 3.69264,2.9675 c 8.47283,6.809 19.9113,11.4803 32.30926,13.1946 l 6.30714,0.8722 8,-0.4495 c 4.4,-0.2472 11.0321,-0.9603 14.73801,-1.5845 z M 329.0263,915.25 c 1.7664,-5.3625 4.7917,-12.8927 6.7229,-16.7337 l 3.5113,-6.9837 6.6198,-6.6012 6.6197,-6.6013 10,-4.9198 c 5.5,-2.7058 11.44937,-5.4361 13.22083,-6.0672 l 3.22083,-1.1474 -3.42142,-8.7151 c -1.88177,-4.7933 -3.65812,-8.9518 -3.94744,-9.2411 -1.03751,-1.0375 -17.21069,-5.3532 -24.09433,-6.4293 l -7.02157,-1.0977 -5.7299,0.7159 -5.7299,0.7159 -4.9207,3.8896 -4.9207,3.8896 -4.4561,6.2882 c -2.4508,3.4586 -5.4476,8.2549 -6.6595,10.6586 l -2.2035,4.3703 1.0747,6.1714 c 1.5605,8.9609 5.9816,21.3683 12.5919,35.338 3.1881,6.7375 5.9124,12.25 6.054,12.25 0.1417,0 1.7028,-4.3875 3.4691,-9.75 z m 144.40438,-31.5103 3.93067,-1.393 -10.00062,-7.5735 -10.00062,-7.5736 -6.04559,-6.5977 -6.04559,-6.5977 -6.70124,-13.0198 -6.70124,-13.0199 -0.94751,0.5856 c -1.54968,0.95775 -4.55024,7.4847 -6.80628,14.8052 L 422,850.2107 l 0.006,7.6446 0.006,7.6447 1.01246,3.6451 1.01245,3.645 3.23197,2.4631 c 4.59269,3.5 12.88521,7.548 18.99652,9.2731 l 5.23545,1.4778 9,-0.4358 9,-0.4357 3.93068,-1.3929 z m 24.17944,-25.9584 c 4.1457,-8.2322 12.67356,-29.83095 12.03166,-30.47285 -0.2345,-0.23451 -4.12455,0.27516 -8.64454,1.13259 -4.52,0.85743 -10.10473,1.55896 -12.41051,1.55896 l -4.19234,0 -9.44719,-2.48125 c -5.19596,-1.36469 -10.74408,-2.48969 -12.32917,-2.5 l -2.88196,-0.0187 -3.38509,2.0921 -3.3851,2.0921 3.26706,6.1311 3.26706,6.1311 7.50437,7.5918 7.50436,7.5917 8.36143,4.1851 c 4.59879,2.3017 8.97867,4.185 9.73306,4.185 l 1.37164,0 3.63526,-7.2187 z m -82.68377,-43.01832 1.07354,-5.26298 -0.79499,-2.8994 -0.79499,-2.89941 -3.87175,3.39941 -3.87175,3.3994 -1.76735,4 c -0.97205,2.2 -2.07689,6.33935 -2.45521,9.19856 l -0.68786,5.19855 0.72328,6.75389 0.72329,6.754 5.32513,-11.18954 5.32513,-11.1895 z M 308.4695,833.02641 c 10.2568,-8.87719 23.6081,-14.8599 38.0305,-17.04143 l 8,-1.21008 9.18044,0.66778 9.18045,0.66778 0.66093,-4.40743 0.66094,-4.40743 -2.20714,-5.13063 -2.20713,-5.13062 -7.28942,-6.92424 -7.28942,-6.92424 -5.48222,-1.22686 -5.48223,-1.22687 -7.0649,1.59546 -7.0649,1.59545 -6.1671,3.11313 -6.1671,3.11313 -3.3888,3.67535 -3.3888,3.67534 -1.906,5.05827 -1.9061,5.05827 -2.0857,14.27188 C 303.9386,829.73795 303,836.3492 303,836.5801 c 0,0.9437 1.0956,0.2319 5.4695,-3.55369 z m 316.87342,-6.08299 c 19.00082,-3.84724 39.58367,-12.01315 54.78313,-21.73431 l 5.62604,-3.59826 0.66648,-11.05543 0.66648,-11.05542 -1.10322,-14.5 -1.10323,-14.5 -2.42631,-13.14908 -2.42632,-13.14908 -3.59037,-11.84497 c -1.97471,-6.51474 -3.71094,-11.96555 -3.8583,-12.11291 -0.14736,-0.14736 -2.42775,2.99997 -5.06753,6.99406 -16.96024,25.66153 -33.2997,40.65876 -55.92364,51.3297 l -9.08613,4.28562 -9,2.56637 c -4.95,1.4115 -13.5,3.24185 -19,4.06743 l -10,1.50107 -12.60577,0.006 -12.60577,0.006 1.33336,7.75 c 0.73335,4.2625 2.07623,9.41409 2.98419,11.44797 l 1.65082,3.69798 8.11997,6.80202 c 15.22475,12.75364 28.33385,20.39483 43.6232,25.42762 l 8.5,2.79795 4.84292,0.0382 4.84291,0.0382 10.15709,-2.05658 z m -127.67047,-18.43879 5.03544,-1.49536 4.6668,-4.10789 4.6668,-4.10788 -0.65045,-5.14675 c -0.35776,-2.83071 -1.68613,-9.28937 -2.95194,-14.35256 l -2.30148,-9.20581 -3.98744,-8.50897 c -2.19309,-4.67994 -4.66591,-9.47764 -5.49517,-10.66156 l -1.50773,-2.15258 -2.96576,5.86736 c -4.13328,8.17715 -10.60574,16.64511 -19.05176,24.92552 l -7.19932,7.05815 1.93387,8.30523 1.93387,8.30523 1.50927,1.50926 c 0.83009,0.8301 3.913,2.33938 6.85091,3.35398 l 5.34164,1.84471 4.5685,0.0326 4.5685,0.0326 5.03545,-1.49537 z m -102.70789,-38.55829 0.0354,-6.55365 -2.70955,-5.44635 -2.70955,-5.44634 -4.54045,-4.53918 -4.54045,-4.53917 -5.99626,-3.42511 -5.99626,-3.42511 -5.00374,0.007 -5.00374,0.007 -5.08884,2.77861 -5.08884,2.77862 -10.24572,10.28069 -10.2457,10.2807 10.0699,-0.4849 10.06987,-0.4849 6.26466,1.22335 6.26467,1.22336 8.41592,3.47347 8.41593,3.47348 7.57733,4.88302 7.57733,4.88302 1.22131,-2.19686 1.22131,-2.19686 0.0354,-6.55366 z M 290.0227,763.25 c 2.312,-4.2625 7.0551,-12.02991 10.5404,-17.26092 l 6.3368,-9.51092 -2.8568,-10.64854 C 292.0539,681.13977 271.8839,642.56858 244.2567,611.5 229.9148,595.37167 222.9093,589.92539 211.4217,585.97305 l -5.2527,-1.80718 -9.3345,-1.168 -9.3345,-1.16801 -31,0.33507 -31,0.33507 -4.5837,2.2587 -4.5837,2.2587 -9.0069,9.7413 C 89.6372,615.88951 73.3577,637.83181 62.2604,657.5 l -5.078,9 -0.6796,11.31424 -0.6797,11.31424 0.7196,17.38394 0.7197,17.38393 5.7637,-2.90952 C 78.6377,713.10611 98.0355,706.65532 116,703.37017 l 9.5,-1.73725 16,0.0295 16,0.0295 9.3249,1.66686 c 37.7412,6.74634 73.2879,25.74327 107.6188,57.51366 6.019,5.57019 11.0408,10.12756 11.1596,10.12756 0.1188,0 2.1075,-3.4875 4.4194,-7.75 z m 167.53482,3.259 c 4.9089,-2.86452 11.22226,-9.55 14.70533,-15.5721 C 474.86235,746.44247 478,737.10717 478,733.86744 l 0,-1.76956 -6.75,-3.77557 -6.75,-3.77557 -10.94766,-3.74238 c -6.02121,-2.05831 -11.06721,-3.62282 -11.21333,-3.47671 -0.14611,0.14612 0.38637,2.43222 1.1833,5.08023 0.79693,2.648 2.12899,8.70201 2.96014,13.45334 l 1.51116,8.63878 0.003,13.22525 0.003,13.22525 2.75,-1.0369 c 1.5125,-0.57029 4.57588,-2.10236 6.80752,-3.4046 z m -28.67655,-3.08754 c 0.20953,-0.19253 0.60235,-3.44424 0.87293,-7.22601 l 0.49198,-6.87596 -1.66846,-8.23415 -1.66845,-8.23414 -2.42087,-5.47402 c -1.33148,-3.01072 -3.3244,-6.74291 -4.42871,-8.29377 l -2.00784,-2.81975 -5.27577,0.8632 c -2.90168,0.47476 -10.11615,1.83541 -16.03215,3.02366 l -10.75638,2.16046 8.80124,8.59451 c 10.17143,9.93253 16.52349,17.95469 21.75977,27.48094 l 3.7081,6.74605 4.12182,-0.68048 c 2.267,-0.37426 4.29325,-0.83801 4.50279,-1.03054 z M 612,733.42127 c 3.025,-0.90304 7.3,-2.55723 9.5,-3.67598 l 4,-2.03409 7.3452,-7.1056 7.34521,-7.1056 5.70286,-8.51364 c 3.13657,-4.6825 7.89141,-12.8049 10.56631,-18.04977 l 4.86345,-9.53613 -4.80206,-8.95023 c -7.4244,-13.83784 -19.10477,-32.74924 -28.3262,-45.86228 -8.61153,-12.24575 -20.81142,-27.86402 -22.1662,-28.3771 l -0.76349,-0.28916 -0.71384,8.28916 c -1.41715,16.45583 -6.17877,35.11334 -11.81356,46.28915 -1.10923,2.2 -4.48426,7.75329 -7.50006,12.34064 l -5.48328,8.34063 -9.12717,9.58008 -9.12717,9.58009 -17.02098,13.57928 C 535.11748,709.38932 525.3439,717.075 522.75994,719 c -2.58395,1.925 -4.71201,3.75432 -4.72902,4.06515 -0.017,0.31083 5.13875,2.21859 11.45724,4.23947 l 11.48816,3.67433 11.26184,1.9752 c 16.02726,2.811 17.33706,2.89949 36.76184,2.48365 l 17.5,-0.37463 z m -242.78458,-41.70336 3.4217,-3.42169 2.60501,-7.89811 C 378.79105,669.6382 382.61422,654.43042 384.64384,643 l 1.68686,-9.5 0.0847,-15 0.0847,-15 -1.78693,-8.28203 c -0.98281,-4.55511 -2.20917,-9.39261 -2.72525,-10.75 L 381.0495,582 l -49.8666,0 c -27.4267,0 -55.9439,0.29146 -63.3716,0.64768 l -13.5048,0.64769 9.6041,7.2347 9.6042,7.23471 9.869,9.86761 9.869,9.86761 7.3152,9.62458 c 16.5801,21.81456 29.5129,45.74814 38.843,71.88323 l 2.6802,7.50781 11.85128,-5.68801 11.85124,-5.688 z m 128.42271,3.72611 8.86187,-2.55598 10,-4.7702 c 19.14922,-9.13455 37.62107,-22.07838 49.25364,-34.51363 l 6.22762,-6.65735 4.45326,-9.22343 4.45325,-9.22343 2.19291,-8.5 2.19291,-8.5 0.11321,-14.5 0.1132,-14.5 -38.43353,-0.26206 -38.43353,-0.26205 -0.80116,1.26205 c -0.44063,0.69413 -0.80948,3.06206 -0.81966,5.26206 -0.0253,5.46191 -2.69099,20.50135 -5.1402,29 -4.93754,17.13302 -13.41522,37.09193 -25.55095,60.1543 l -6.57387,12.4928 0.87645,0.82946 c 1.3332,1.26172 14.65125,6.86651 16.51458,6.95002 0.90098,0.0404 5.62598,-1.07677 10.5,-2.48256 z m -69.90561,-13.05978 6.23253,-0.53968 8.14044,-8.67228 C 462.85809,651.06388 477.4158,626.60559 484.76525,601.5 486.7579,594.69311 489,584.8722 489,582.95078 L 489,582 l -43.61658,0 -43.61657,0 0.49594,2.25 c 0.27277,1.2375 1.65334,6.75 3.06794,12.25 1.4146,5.5 3.36466,15.175 4.33346,21.5 l 1.76145,11.5 -0.0622,20 -0.0622,20 -1.11878,6.39707 c -0.61534,3.5184 -0.90206,6.74775 -0.63717,7.17636 l 0.48162,0.77928 5.7365,-0.4644 c 3.15508,-0.25542 8.54114,-0.70725 11.96902,-1.00407 z M 65.6408,595.29113 c 4.3226,-5.33987 8.4472,-10.51487 9.1659,-11.5 L 76.1134,582 66.5567,582 57,582 l 0,11.5 c 0,6.325 0.1759,11.5 0.3908,11.5 0.215,0 3.9275,-4.36899 8.25,-9.70887 z M 1220,426.5 l 0,-31.5 -581.5,0 -581.5,0 0,31.5 0,31.5 581.5,0 581.5,0 z m 0,-264 0,-107.5 -581.5,0 -581.5,0 0,107.5 0,107.5 581.5,0 581.5,0 z m -909.5937,62.75 c 0.2975,-0.9625 3.2875,-10.69285 6.6444,-21.62299 l 6.1033,-19.873 -0.827,-0.71924 c -0.4549,-0.39559 -6.227,-4.80188 -12.827,-9.79176 -6.6,-4.98989 -13.8,-10.66715 -16,-12.61614 l -4,-3.54362 20.7148,-0.0416 20.7148,-0.0416 0.8677,-1.75 c 0.4772,-0.9625 3.5305,-10.66306 6.7851,-21.5568 l 5.9176,-19.8068 1.2714,3.10233 c 0.6993,1.70628 3.82353,11.40684 6.94269,21.5568 l 5.6712,18.45447 21.05735,0.0406 21.05736,0.0406 -3.5,3.0229 c -3.21205,2.7742 -23.97426,19.01492 -28.38918,22.20673 l -1.88918,1.3658 6.13918,21.08712 C 376.23737,216.36175 379,226.07668 379,226.35257 c 0,0.27588 -7.71365,-5.31785 -17.14145,-12.43053 l -17.14145,-12.93214 -1.1085,0.8697 C 331.928,211.02343 310.8364,227 310.4193,227 c -0.3047,0 -0.3106,-0.7875 -0.013,-1.75 z m 293.60538,1.08403 c 0.006,-0.45872 2.70643,-9.79566 6,-20.74877 3.29358,-10.9531 5.98149,-20.4031 5.97313,-21 -0.008,-0.59689 -7.48736,-6.93526 -16.62,-14.08526 l -16.60482,-13 21.04895,-0.26968 21.04895,-0.26968 1.024,-3.23032 c 0.56321,-1.77668 3.33754,-10.88032 6.16519,-20.23032 2.82764,-9.35 5.46669,-17.34537 5.86454,-17.76749 l 0.72336,-0.76749 6.47123,20.76749 6.47123,20.76749 20.94137,0.5 20.94138,0.5 -7.4801,6.05426 c -6.24065,5.05108 -25.0006,19.60391 -25.68309,19.92339 -0.11166,0.0523 2.4788,9.29479 5.75658,20.53895 3.27777,11.24416 5.83236,20.82559 5.67687,21.29206 l -0.28271,0.84813 -16.68651,-12.65242 -16.6865,-12.65242 -13.28737,10.25103 c -7.30805,5.63806 -14.97486,11.55918 -17.03736,13.15805 -2.0625,1.59887 -3.74474,2.53172 -3.73832,2.073 z m 293.54902,-1.4588 c 0.4262,-1.30638 3.387,-11.13134 6.5795,-21.83325 l 5.8047,-19.45802 -0.8197,-0.54198 C 908.6744,182.74389 900.9839,176.875 892.0352,170 l -16.2703,-12.5 21.3411,-0.5 21.3412,-0.5 6.0545,-20 c 3.3299,-11 6.3118,-20.675 6.6263,-21.5 l 0.5719,-1.5 3.5748,11.5 c 1.9662,6.325 4.9909,16.10364 6.7216,21.73032 l 3.1468,10.23032 20.9008,0.26968 20.9009,0.26968 -6.0743,4.8594 c -5.0182,4.01453 -26.9265,20.77961 -27.5548,21.08605 -0.1014,0.0494 2.7111,9.70822 6.25,21.46394 3.5388,11.75572 6.4343,21.55728 6.4343,21.78125 0,0.22397 -7.7132,-5.46999 -17.1405,-12.65325 l -17.1404,-13.06048 -3.6096,2.69626 c -1.9852,1.48295 -9.2345,7.01931 -16.1095,12.30303 -6.875,5.28372 -13.1107,9.98195 -13.8571,10.44051 l -1.3572,0.83375 z"
     sodipodi:nodetypes="ccccccccccsscccccccsscccsscccsscscccsscssccccsccccccscsscccssscccsssccccssscsscsscccscssscccssccccssscccsscssscccsscsscsscccsscsscsscsccsscsscccccsscsscsscccscsscccccsscccccsscssccccccccccccsscsccsscscccscccscccccccsssscccccccccsscccccscccccsscccccsccccsccccssscccsccccscccccccsscccsscsscsscscccccssssccccccsscssscsscsccscccsccccccscsccccccccssscccccccccssccccccccccccccsscscccccccccscccccccccssccccccsscccccccccccccccccccssscscccccccsssscsscccsscsscccccccccsscsscsscccssccccccccccccccccccccccccccccccccscssscccccccsscccccsscccsssccsscccscsscccscccscccsscsscsscscsscccsscssccssscccsscscsscsccsscccsccsscccccssccccscsscccccccccsssscscsccssscccssscccsscsccsscccssscccccccccccccccccccsccssccccsccscccsscsssccsccscscccssscccccscsscccssccsccscccsccsscccscsssccsccc" />
</svg>
