<?xml version="1.0" encoding="UTF-8" standalone="no"?>
<!-- Created with Inkscape (http://www.inkscape.org/) -->

<svg
   xmlns:dc="http://purl.org/dc/elements/1.1/"
   xmlns:cc="http://creativecommons.org/ns#"
   xmlns:rdf="http://www.w3.org/1999/02/22-rdf-syntax-ns#"
   xmlns:svg="http://www.w3.org/2000/svg"
   xmlns="http://www.w3.org/2000/svg"
   xmlns:sodipodi="http://sodipodi.sourceforge.net/DTD/sodipodi-0.dtd"
   xmlns:inkscape="http://www.inkscape.org/namespaces/inkscape"
   width="730"
   height="600"
   id="svg2"
   version="1.1"
   inkscape:version="0.48.3.1 r9886"
   sodipodi:docname="HacDCLUG-Tux.svg"
   inkscape:export-filename="/home/hax/Dropbox/Public/hacdc/HacDCLUG-Tux.png"
   inkscape:export-xdpi="70"
   inkscape:export-ydpi="70">
  <defs
     id="defs4" />
  <sodipodi:namedview
     id="base"
     pagecolor="#ffffff"
     bordercolor="#666666"
     borderopacity="1.0"
     inkscape:pageopacity="0.0"
     inkscape:pageshadow="2"
     inkscape:zoom="0.7"
     inkscape:cx="394.79346"
     inkscape:cy="290.03316"
     inkscape:document-units="px"
     inkscape:current-layer="layer1"
     showgrid="false"
     inkscape:window-width="1168"
     inkscape:window-height="756"
     inkscape:window-x="0"
     inkscape:window-y="18"
     inkscape:window-maximized="1"
     fit-margin-top="0"
     fit-margin-left="0"
     fit-margin-right="0"
     fit-margin-bottom="0" />
  <metadata
     id="metadata7">
    <rdf:RDF>
      <cc:Work
         rdf:about="">
        <dc:format>image/svg+xml</dc:format>
        <dc:type
           rdf:resource="http://purl.org/dc/dcmitype/StillImage" />
        <dc:title></dc:title>
      </cc:Work>
    </rdf:RDF>
  </metadata>
  <g
     inkscape:label="Layer 1"
     inkscape:groupmode="layer"
     id="layer1"
     transform="translate(-45.340699,-362.3526)">
    <path
       transform="matrix(-0.77775605,-0.24245758,-0.21801942,0.69936324,814.6227,277.78556)"
       d="m 308.57143,406.64789 a 185,61.42857 0 1 1 -370.000004,0 185,61.42857 0 1 1 370.000004,0 z"
       sodipodi:ry="61.42857"
       sodipodi:rx="185"
       sodipodi:cy="406.64789"
       sodipodi:cx="123.57143"
       id="path4233"
       style="fill:#000000;fill-opacity:1;stroke:none"
       sodipodi:type="arc" />
    <path
       sodipodi:type="arc"
       style="fill:#000000;fill-opacity:1;stroke:none"
       id="path4220"
       sodipodi:cx="123.57143"
       sodipodi:cy="406.64789"
       sodipodi:rx="185"
       sodipodi:ry="61.42857"
       d="m 308.57143,406.64789 a 185,61.42857 0 1 1 -370.000004,0 185,61.42857 0 1 1 370.000004,0 z"
       transform="matrix(0.77775605,-0.24245758,0.21801942,0.69936324,5.091579,277.78556)" />
    <path
       sodipodi:type="arc"
       style="fill:#000000;fill-opacity:1"
       id="path2985"
       sodipodi:cx="375.71429"
       sodipodi:cy="509.50504"
       sodipodi:rx="238.57143"
       sodipodi:ry="285.71429"
       d="m 614.28572,509.50504 a 238.57143,285.71429 0 1 1 -477.14285,0 238.57143,285.71429 0 1 1 477.14285,0 z"
       transform="translate(32,142)" />
    <path
       style="fill:#ffdb66;fill-opacity:1;stroke:none"
       d="m 287.42856,893.79077 64.28572,0 c 14.24571,0 25.71429,11.46857 25.71429,25.71429 0,14.24571 -1.47032,25.93684 -15.71429,25.71428 l -91.42858,-1.42857 c -14.24397,-0.22256 -8.57142,-10.04 -8.57142,-24.28571 0,-14.24572 11.46857,-25.71429 25.71428,-25.71429 z"
       id="rect4205"
       inkscape:connector-curvature="0"
       sodipodi:nodetypes="sssssss" />
    <path
       style="fill:#ffdb66;fill-opacity:1;stroke:none"
       d="m 449.42858,895.79077 64.28572,0 c 14.24571,0 25.71428,11.46857 25.71428,25.71429 0,14.24571 6.53143,25.71428 -7.71428,25.71428 l -94.28572,0 c -14.24571,0 -13.71429,-11.46857 -13.71429,-25.71428 0,-14.24572 11.46858,-25.71429 25.71429,-25.71429 z"
       id="rect4218"
       inkscape:connector-curvature="0"
       sodipodi:nodetypes="sssssss" />
    <path
       d="m 614.28572,509.50504 a 238.57143,285.71429 0 1 1 -477.14285,0 238.57143,285.71429 0 1 1 477.14285,0 z"
       sodipodi:ry="285.71429"
       sodipodi:rx="238.57143"
       sodipodi:cy="509.50504"
       sodipodi:cx="375.71429"
       id="path3766"
       style="fill:#ffffff;fill-opacity:1"
       sodipodi:type="arc"
       transform="matrix(0.73500001,0,0,0.73500001,131.56428,344.1617)" />
    <path
       style="fill:#000000;fill-opacity:1"
       d="m 235.25,680.46875 c -0.42807,2.7915 -0.7901,5.60855 -1.125,8.4375 l 0.8125,0 -0.40625,0.625 c -0.0445,0.064 -0.44358,0.59031 -0.5625,0.75 -0.75875,6.72832 -1.25524,13.55389 -1.46875,20.46875 3.38163,-5.63382 7.72261,-11.5659 12.40625,-16.875 l 2.90625,-3.28125 1.46875,-0.75 1.4375,-0.75 9.9375,-0.125 9.90625,-0.0937 3,0.375 2.96875,0.40625 1.6875,0.59375 c 3.675,1.32519 5.91184,3.15478 10.5,8.5625 8.83827,10.41713 15.28952,23.35951 19.125,38.34375 l 0.90625,3.5625 -2,3.1875 c -1.11498,1.75391 -2.63536,4.35205 -3.375,5.78125 -0.7396,1.42919 -1.3996,2.59375 -1.4375,2.59375 -0.038,0 -1.63696,-1.50734 -3.5625,-3.375 -10.98287,-10.65243 -22.3324,-17.05049 -34.40625,-19.3125 l -3,-0.53125 -5.125,-0.0312 -5.125,0 -3.03125,0.59375 c -4.96971,0.95249 -10.26801,2.68016 -14.84375,4.84375 0.1504,2.41936 0.37547,4.82291 0.59375,7.21875 4.53894,-2.45528 8.2258,-3.9593 11.1875,-4.53125 l 2.0625,-0.40625 2.8125,0.59375 c 1.55612,0.32109 4.75817,1.26798 7.125,2.09375 l 4.3125,1.5 3.9375,2.03125 3.9375,2 3.75,2.59375 c 5.11141,3.50892 9.42912,7.22451 13.90625,11.96875 l 3.75,4 2.9375,3.84375 2.9375,3.84375 0.65625,1.53125 0.65625,1.5 0.1875,4.875 c 0.0993,2.67397 0.1639,4.90165 0.125,4.96875 -0.0389,0.067 -1.05299,-0.18164 -2.25,-0.5625 -3.40831,-1.08449 -7.34464,-1.95269 -10.84375,-2.40625 l -3.21875,-0.4375 -5.25,0.1875 -5.28125,0.15625 -3.34375,0.75 c -8.31551,1.85599 -16.26185,6.01053 -23.53125,12.25 0.71674,2.23106 1.47213,4.4314 2.25,6.625 1.39619,-1.22265 2.63612,-2.19898 3.15625,-2.40625 1.93143,-0.76962 7.6175,-2.12063 10.9375,-2.59375 l 3.5,-0.5 5.28125,0 5.3125,0.0312 3.03125,0.34375 c 8.10301,0.94924 19.84072,4.27012 24.125,6.8125 l 1.25,0.75 2.625,4.78125 c 1.44794,2.63106 3.39629,5.82971 4.3125,7.125 0.9162,1.29532 1.59735,2.395 1.53125,2.4375 -0.066,0.0426 -1.7578,0.50893 -3.78125,1.03125 -4.64864,1.20003 -8.39096,2.69326 -13.09375,5.25 l -3.71875,2.03125 -3.03125,2.25 -3.03125,2.25 -3.46875,3.5 -3.5,3.53125 -2.03125,2.6875 c -2.03498,2.72807 -3.85678,5.66591 -5.53125,8.90625 1.81298,2.7435 3.70208,5.40124 5.625,8.03125 5.1613,-5.16219 10.35997,-8.88241 16.96875,-12.125 l 3.4375,-1.6875 4.625,-1.625 c 7.90182,-2.75297 16.5441,-4.37507 25.9375,-4.875 l 4.3125,-0.21875 1.4375,0.40625 1.4375,0.40625 3.90625,2.21875 c 2.1513,1.22758 3.90925,2.31415 3.90625,2.40625 -0.003,0.0922 -1.03052,0.98575 -2.28125,2 -2.86657,2.3246 -6.70589,6.65848 -9.375,10.5625 L 328,857.4063 l -2.0625,4.34375 -2.0625,4.375 -0.96875,3.1875 c -1.20847,3.94071 -1.80845,6.78112 -2.4375,11.65625 L 320,884.75 l 0,5.09375 0,5.125 0.5,4.5 c 0.0542,0.49632 0.12598,1.00094 0.1875,1.5 2.17547,1.49258 4.36103,2.96117 6.59375,4.34375 l -0.3125,-1.59375 0.21875,-1.6875 c 0.1156,-0.93366 0.74839,-3.48728 1.4375,-5.65625 l 1.28125,-3.9375 2.0625,-4.28125 c 3.67514,-7.55374 7.64077,-13.19522 13.78125,-19.65625 6.72531,-7.07631 17.72623,-15.7894 23.40625,-18.53125 l 1.65625,-0.8125 3.9375,-0.3125 c 2.16733,-0.18096 4.19209,-0.39825 4.5,-0.46875 l 0.5625,-0.125 0,0.25 c 0,0.14783 -0.41599,1.34055 -0.9375,2.625 -1.32376,3.26033 -2.52815,7.68263 -3.125,11.625 l -0.5,3.375 0.1875,5.84375 0.15625,5.875 0.8125,3.53125 c 3.42324,15.00155 12.25964,29.7195 27.0625,45.09375 0.78628,0.81662 1.47031,1.53587 2.03125,2.15625 0.73876,0.011 1.47781,0.0312 2.21875,0.0312 2.35388,0 4.6999,-0.0774 7.03125,-0.1875 l -0.0312,-0.0312 c -3.50736,-3.00637 -7.29107,-6.76185 -9.03125,-9.03125 l -1.75,-2.3125 -1.03125,-3.46875 c -0.5634,-1.90746 -1.38568,-5.44876 -1.8125,-7.875 l -0.75,-4.4375 -0.375,-5.6875 -0.40625,-5.6875 0.21875,-5.03125 c 0.47308,-11.3064 2.27241,-23.4535 5.28125,-35.5625 1.47984,-5.95567 3.99938,-14.51747 4.8125,-16.40625 l 0.5625,-1.34375 2.9375,-3.3125 c 14.01497,-15.8498 23.19304,-36.76391 26.125,-59.5625 l 0.5,-3.84375 0.1875,-6.5625 0.1875,-6.53125 L 440,747.75 c -0.5351,-5.66007 -1.54558,-11.39503 -2.78125,-15.9375 -3.12955,-11.50455 -10.01586,-25.33682 -19.09375,-38.375 -1.54076,-2.21296 -2.77825,-4.14281 -2.78125,-4.28125 l -0.0312,-0.25 87.5,0 78.5,0 c -0.22651,-1.91349 -0.48072,-3.82222 -0.75,-5.71875 z m 81.28125,8.4375 15.96875,0 0.28125,0.84375 c 0.16511,0.45513 0.5606,2.06643 0.875,3.59375 l 0.5625,2.78125 -0.0312,5.03125 0,5.03125 -0.5625,3.1875 c -0.64931,3.83255 -1.86466,8.9235 -3,12.53125 l -0.84375,2.65625 -1.09375,1.15625 -1.09375,1.125 -3.78125,1.90625 -3.78125,1.90625 -0.875,-2.5 c -2.98482,-8.76296 -7.10206,-16.81071 -12.40625,-24.125 L 304.40625,700.8125 301.25,697.5 298.09375,694.1875 295,691.78125 l -3.0625,-2.4375 4.3125,-0.21875 c 2.3762,-0.11945 11.50711,-0.21875 20.28125,-0.21875 z m 22.59375,0 13.9375,0 13.96875,0 0,0.34375 c 0,0.64424 -0.73753,3.93644 -1.375,6.21875 -2.35117,8.41777 -6.98599,16.61843 -13.625,24.03125 l -2.625,2.90625 -2,0.15625 c -1.09661,0.0995 -2.80316,0.25815 -3.8125,0.34375 l -1.84375,0.15625 -0.15625,-0.25 c -0.0847,-0.14373 0.0219,-1.22655 0.21875,-2.40625 l 0.34375,-2.15625 0.0312,-6.6875 0.0312,-6.71875 L 341.625,701 c -0.30991,-2.12074 -0.92246,-5.37463 -1.375,-7.21875 -0.45256,-1.84411 -0.88145,-3.71009 -0.96875,-4.125 z m 34.1875,0 12.28125,0.0937 12.3125,0.0937 -0.0625,4.84375 -0.0312,4.875 -0.6875,2.84375 -0.71875,2.84375 -1.40625,3.09375 -1.4375,3.09375 -2,2.25 c -3.72141,4.16947 -9.62394,8.49972 -15.75,11.5625 l -3.1875,1.59375 -2.84375,0.875 c -1.55927,0.47135 -3.05551,0.8262 -3.34375,0.8125 -0.59611,-0.028 -4.85473,-1.88945 -5.28125,-2.3125 L 360.875,725.1875 362.96875,721 c 3.88237,-7.73268 6.57667,-14.44289 8.15625,-20.1875 0.78353,-2.84954 1.64825,-7.88739 1.65625,-9.71875 0.003,-0.73763 0.10904,-1.51725 0.25,-1.75 z m 30.90625,4 0.25,0.0937 c 0.43343,0.17203 4.33882,5.42534 7.09375,9.53125 2.95004,4.39675 6.68735,10.73526 9.0625,15.375 l 1.53125,3 -1.5625,3.1875 c -0.85574,1.75858 -2.37158,4.4925 -3.375,6.0625 L 415.375,733 l -2.34375,2.375 -2.34375,2.40625 -1.28125,0.6875 c -0.70381,0.37511 -2.06353,0.91598 -3.03125,1.21875 l -1.75,0.5625 -5.625,0.125 c -6.21422,0.13941 -6.62269,0.0987 -11.75,-0.84375 l -3.59375,-0.65625 -3.6875,-1.25 c -2.02136,-0.67758 -3.66125,-1.30202 -3.65625,-1.40625 0.005,-0.10422 0.67335,-0.72955 1.5,-1.375 0.82663,-0.64543 3.97387,-3.21456 6.96875,-5.71875 l 5.4375,-4.5625 2.90625,-3.1875 2.9375,-3.21875 1.75,-2.8125 c 0.96478,-1.53812 2.05139,-3.38735 2.40625,-4.125 1.80264,-3.74719 3.32787,-10.01371 3.78125,-15.53125 z M 425.75,728.5625 c 0.0471,0.0494 0.58701,1.87814 1.21875,4.0625 l 1.15625,3.96875 0.78125,4.40625 0.78125,4.40625 0.34375,4.875 0.375,4.84375 -0.21875,3.71875 -0.21875,3.71875 -1.8125,1.1875 c -4.8625,3.25946 -11.45268,5.9913 -17.53125,7.28125 l -3.25,0.71875 -1.53125,-0.0312 -1.5625,0 -2.71875,-0.9375 c -4.89125,-1.68747 -9.06691,-4.25504 -13.9375,-8.53125 l -2.59375,-2.28125 -0.53125,-1.25 c -0.29048,-0.68197 -0.73416,-2.41456 -0.96875,-3.84375 l -0.4375,-2.59375 4.0625,0 4.03125,0 3.1875,-0.5 c 1.75952,-0.2768 4.47893,-0.90173 6.0625,-1.375 l 2.90625,-0.84375 2.90625,-1.4375 c 7.23766,-3.57791 12.44923,-8.6146 17.875,-17.21875 0.8445,-1.3392 1.5777,-2.39325 1.625,-2.34375 z m -81.4375,5.375 0.65625,0.9375 c 0.35328,0.52 0.98031,1.77176 1.40625,2.78125 l 0.78125,1.84375 0.53125,2.75 0.53125,2.78125 -0.15625,2.28125 c -0.0866,1.26802 -0.21415,2.373 -0.28125,2.4375 -0.067,0.0646 -0.71226,0.21837 -1.4375,0.34375 l -1.3125,0.21875 -1.1875,-2.25 c -1.67513,-3.1941 -3.71477,-5.88842 -6.96875,-9.21875 l -2.8125,-2.875 L 337.5,735.25 c 1.89259,-0.3984 4.19671,-0.872 5.125,-1.03125 z m 7.78125,0.34375 c 0.0467,-0.049 1.66748,0.49735 3.59375,1.1875 l 3.5,1.25 2.15625,1.25 2.15625,1.28125 0,0.59375 c 0,1.08626 -1.01215,4.21179 -1.84375,5.71875 -1.11429,2.01918 -3.11709,4.25829 -4.6875,5.21875 -0.71393,0.43663 -1.70364,0.96504 -2.1875,1.15625 l -0.875,0.34375 0,-4.4375 0,-4.4375 -0.5,-2.90625 c -0.2659,-1.59309 -0.68256,-3.61214 -0.9375,-4.5 -0.25501,-0.88786 -0.4218,-1.66975 -0.375,-1.71875 z m -26.8125,6.46875 1.59375,0 1.59375,0 1.9375,1.15625 1.90625,1.125 1.4375,1.53125 1.46875,1.53125 0.875,1.8125 0.84375,1.84375 0,2.1875 0,2.1875 -0.40625,0.75 -0.375,0.71875 -2.4375,-1.625 -2.40625,-1.625 -2.71875,-1.1875 -2.6875,-1.15625 -2,-0.40625 -2,-0.40625 -3.21875,0.15625 -3.21875,0.15625 3.28125,-3.4375 3.28125,-3.4375 1.625,-0.9375 z M 369,744.84375 l 0.46875,0.71875 c 0.26528,0.39696 1.04841,1.99334 1.75,3.5625 l 1.28125,2.84375 0.75,3.09375 c 0.40496,1.69767 0.82312,3.86338 0.9375,4.8125 l 0.21875,1.71875 -1.5,1.375 -1.5,1.40625 -1.625,0.5 -1.59375,0.5 -1.46875,-0.0312 -1.46875,0 -1.6875,-0.625 c -0.93985,-0.34019 -1.92195,-0.84667 -2.1875,-1.125 l -0.5,-0.5 -0.625,-2.78125 -0.59375,-2.78125 2.28125,-2.375 c 2.70198,-2.77636 4.77146,-5.602 6.09375,-8.34375 z m -48.28125,10.71875 1.75,0.40625 1.75,0.40625 2.3125,2.3125 2.34375,2.34375 0.71875,1.71875 0.6875,1.71875 -0.1875,1.46875 -0.21875,1.46875 -2.9375,-0.21875 -2.9375,-0.21875 -2.5625,0.40625 c -4.6139,0.73144 -8.87498,2.74229 -12.15625,5.71875 -1.39926,1.26936 -1.75,1.5039 -1.75,1.1875 0,-0.0774 0.28925,-2.30559 0.65625,-4.9375 l 0.65625,-4.78125 0.625,-1.6875 0.59375,-1.6875 1.09375,-1.25 1.09375,-1.21875 1.96875,-1.0625 1.96875,-1.03125 2.25,-0.53125 z m 22.4375,7.6875 0.25,0.96875 0.25,0.96875 -0.34375,1.78125 -0.34375,1.75 -1.6875,3.75 -1.71875,3.75 -0.21875,-2.25 -0.21875,-2.28125 0.21875,-1.71875 c 0.12102,-0.95868 0.47029,-2.35611 0.78125,-3.09375 l 0.5625,-1.34375 1.21875,-1.125 z m 14.5,7.15625 0.9375,0 c 0.5071,0.003 2.27525,0.38616 3.9375,0.84375 l 3.03125,0.8125 1.3125,0 c 0.73762,0 2.52275,-0.21249 3.96875,-0.5 1.44601,-0.28735 2.70625,-0.48485 2.78125,-0.40625 0.20535,0.21522 -2.51749,7.45855 -3.84375,10.21875 l -1.15625,2.4375 -0.4375,0 c -0.24134,0 -1.65379,-0.63452 -3.125,-1.40625 L 362.375,781 l -2.40625,-2.53125 -2.375,-2.5625 -1.0625,-2.0625 -1.03125,-2.03125 1.0625,-0.71875 z m -8.90625,0.96875 2.125,4.375 2.15625,4.375 1.9375,2.21875 1.9375,2.1875 3.1875,2.5625 3.21875,2.53125 -1.28125,0.46875 -1.25,0.46875 -2.875,0.125 -2.875,0.15625 -1.6875,-0.5 c -1.95509,-0.5784 -4.59324,-1.9202 -6.0625,-3.09375 l -1.03125,-0.84375 -0.34375,-1.21875 -0.3125,-1.21875 0,-2.5625 0,-2.5625 0.65625,-2.28125 c 0.72174,-2.45451 1.69174,-4.64762 2.1875,-4.96875 z m 79.90625,0.15625 c 0.21907,0.22959 -1.42272,7.73114 -2.59375,11.875 -0.63661,2.25273 -1.87524,6.09453 -2.78125,8.53125 -1.6504,4.43873 -5.63583,12.96302 -6.53125,14 l -0.46875,0.5625 -2.15625,0.375 c -1.18557,0.2093 -3.31114,0.44835 -4.71875,0.53125 l -2.5625,0.15625 -2,-0.28125 c -3.96625,-0.57481 -7.63317,-2.15449 -10.34375,-4.4375 l -1.1875,-1 -1.75,-2.5625 c -3.39337,-4.96863 -6.09779,-11.01099 -7.9375,-17.8125 l -1.03125,-3.875 0.34375,-2.4375 c 0.18492,-1.34732 0.4071,-2.5277 0.5,-2.625 0.0928,-0.0972 1.10969,0.41566 2.28125,1.15625 l 2.15625,1.34375 2.75,1.0625 c 1.52635,0.57909 3.86786,1.31917 5.1875,1.625 l 2.40625,0.53125 5.125,0.0312 5.09375,0 3.21875,-0.625 3.1875,-0.625 3.84375,-1.34375 c 2.11141,-0.73523 5.18875,-1.99831 6.84375,-2.8125 1.65504,-0.81424 3.0595,-1.41245 3.125,-1.34375 z m -109.15625,4.125 2.25,0.375 c 2.20216,0.3608 7.38683,1.80838 7.71875,2.15625 0.0926,0.097 0.648,1.48657 1.25,3.09375 l 1.09375,2.9375 -1.03125,0.375 c -0.56672,0.21159 -2.45922,1.12401 -4.21875,2.03125 l -3.21875,1.65625 -2.09375,2.21875 -2.125,2.1875 -1.125,2.34375 c -0.61782,1.28787 -1.59115,3.82699 -2.15625,5.625 -0.56506,1.79801 -1.0797,3.28125 -1.125,3.28125 -0.0453,0 -0.88634,-1.86597 -1.90625,-4.125 -2.11472,-4.68398 -3.53203,-8.83921 -4.03125,-11.84375 l -0.34375,-2.0625 0.6875,-1.46875 c 0.38769,-0.80596 1.34097,-2.43409 2.125,-3.59375 l 1.4375,-2.09375 1.5625,-1.3125 1.59375,-1.28125 1.8125,-0.25 z m 57.28125,14.53125 c 0.0786,0 0.50209,0.72446 0.9375,1.625 0.4354,0.90052 1.82194,3.27729 3.09375,5.28125 l 2.3125,3.65625 3.5625,3.6875 3.53125,3.6875 2.875,1.75 2.875,1.78125 2.5625,0.84375 2.5625,0.84375 3.03125,0.5 c 1.67226,0.26421 3.95663,0.46875 5.0625,0.46875 l 2,0 -0.3125,0.625 c -0.60914,1.19296 -7.51198,8.50481 -10.0625,10.65625 -3.56002,3.00302 -7.28473,5.56276 -10.65625,7.34375 -1.55806,0.82301 -3.04858,1.47375 -3.3125,1.46875 -0.26393,-0.006 -0.90965,-0.33407 -1.4375,-0.75 -0.52784,-0.4159 -2.09756,-1.65318 -3.5,-2.75 -3.58232,-2.80162 -6.60128,-5.8741 -8.78125,-8.90625 l -1.875,-2.59375 -0.4375,-1.28125 -0.4375,-1.28125 0,-6.71875 0,-6.71875 0.59375,-2.59375 0.59375,-2.625 1.25,-2.5625 1.25,-2.59375 1.28125,-1.4375 c 0.71175,-0.78375 1.3587,-1.40625 1.4375,-1.40625 z m -44.875,2.34375 2.34375,0 2.3125,0 3.6875,2.84375 3.6875,2.875 -1.78125,2.59375 c -0.97491,1.42288 -2.26601,3.60917 -2.875,4.875 l -1.09375,2.3125 -0.625,2.5625 -0.65625,2.5625 0,3.25 0.0312,3.25 0.65625,3.4375 c 0.36719,1.88857 0.75545,3.53788 0.84375,3.6875 l 0.15625,0.28125 -0.28125,0 c -0.34954,0 -4.88837,-3.22777 -8.25,-5.875 -1.39919,-1.10181 -3.9233,-3.45067 -5.625,-5.21875 l -3.09375,-3.21875 -0.25,-2.59375 -0.21875,-2.625 0.21875,-2.125 c 0.11485,-1.17509 0.46949,-3.09323 0.8125,-4.25 l 0.625,-2.09375 1.125,-1.75 1.125,-1.75 1.375,-0.8125 c 0.74833,-0.45295 2.35629,-1.14624 3.5625,-1.53125 l 2.1875,-0.6875 z m 28.9375,9.375 0.1875,3.9375 0.1875,3.9375 0.8125,3 0.78125,2.96875 1.28125,2.78125 c 0.69633,1.52095 2.13484,4.08573 3.1875,5.71875 l 1.90625,2.96875 2.46875,2.78125 c 1.36063,1.5278 3.52488,3.72926 4.8125,4.90625 l 2.34375,2.15625 -0.53125,0.21875 c -0.29684,0.12475 -2.90929,0.27585 -5.8125,0.34375 l -5.28125,0.125 -3.03125,-0.46875 c -4.28593,-0.68383 -8.90166,-1.98721 -12.75,-3.59375 l -3.3125,-1.375 -0.875,-1.375 c -1.48666,-2.27321 -2.5652,-4.71907 -3.4375,-7.90625 L 342.96875,820 343.625,817.75 c 0.36225,-1.24388 1.22714,-3.52732 1.9375,-5.0625 l 1.3125,-2.78125 1.75,-2.4375 1.75,-2.46875 1.5,-1.28125 1.53125,-1.28125 2.25,-0.25 c 1.24076,-0.13073 2.90887,-0.238 3.71875,-0.25 l 1.46875,-0.0312 z"
       id="path4248"
       inkscape:connector-curvature="0"
       sodipodi:nodetypes="cccccccccccccccsccccsccccccccccccccccccccccccccccccccccccccccccccccccccccccccccccccscccccccccccccccccscccccsscccccscsccccccccccsccccccccssccccccscccccccccccccccccccccscccsscccccccccccccccccccccccccccccccscccccsccccccccccccccsscccccsccccccccccccccccccccccccccccscccccccccccccccccccccccsssccccccccccccccccccccccccccccccccccccccccccccccccccccccccccccccccscsccccccccccccccccccccccccccccsccccsccccccccccccccccccccccccccccccssccccccccccccccccccccccccccccccccccccccsscccccccccsscccccccccsccscccscccccccccccscccccccccccccccsccccccccccccccccccccccccccccccccccccccccccccc" />
    <path
       style="fill:#000000;fill-opacity:1"
       d="m 407.71875,365.78125 c -131.75936,0 -238.5625,127.9231 -238.5625,285.71875 0,157.79564 106.80314,285.71875 238.5625,285.71875 131.75936,0 238.5625,-127.92311 238.5625,-285.71875 0,-157.79565 -106.80314,-285.71875 -238.5625,-285.71875 z m 0,142.875 c 96.84313,0 175.34375,94.0202 175.34375,210 0,115.9798 -78.50062,210 -175.34375,210 -96.84313,0 -175.34375,-94.0202 -175.34375,-210 0,-115.9798 78.50062,-210 175.34375,-210 z"
       id="path4145"
       inkscape:connector-curvature="0"
       sodipodi:nodetypes="ssssssssss" />
    <path
       sodipodi:type="arc"
       style="fill:#ffffff;fill-opacity:1"
       id="path3770"
       sodipodi:cx="114.28571"
       sodipodi:cy="219.50504"
       sodipodi:rx="28.571428"
       sodipodi:ry="64.285713"
       d="m 142.85714,219.50504 a 28.571428,64.285713 0 1 1 -57.142855,0 28.571428,64.285713 0 1 1 57.142855,0 z"
       transform="translate(226.28571,250.57143)" />
    <path
       transform="translate(346.28571,250.57143)"
       d="m 142.85714,219.50504 a 28.571428,64.285713 0 1 1 -57.142855,0 28.571428,64.285713 0 1 1 57.142855,0 z"
       sodipodi:ry="64.285713"
       sodipodi:rx="28.571428"
       sodipodi:cy="219.50504"
       sodipodi:cx="114.28571"
       id="path3783"
       style="fill:#ffffff;fill-opacity:1"
       sodipodi:type="arc" />
    <path
       sodipodi:type="arc"
       style="fill:#ffdb67;fill-opacity:1"
       id="path3768"
       sodipodi:cx="362.85715"
       sodipodi:cy="18.076468"
       sodipodi:rx="191.42857"
       sodipodi:ry="68.571426"
       d="m 554.28572,18.076468 a 191.42857,68.571426 0 1 1 -382.85715,0 191.42857,68.571426 0 1 1 382.85715,0 z"
       transform="matrix(0.46268657,0,0,0.50497512,229.82516,508.09116)" />
    <path
       sodipodi:type="arc"
       style="fill:#000000;fill-opacity:1"
       id="path3785"
       sodipodi:cx="-47.142857"
       sodipodi:cy="319.50504"
       sodipodi:rx="50"
       sodipodi:ry="44.285713"
       d="m 2.8571434,319.50504 a 50,44.285713 0 1 1 -100.0000004,0 50,44.285713 0 1 1 100.0000004,0 z"
       transform="matrix(0.41935482,0,0,0.41935482,367.94471,321.80478)" />
    <path
       transform="matrix(0.41935482,0,0,0.41935482,467.94471,321.80478)"
       d="m 2.8571434,319.50504 a 50,44.285713 0 1 1 -100.0000004,0 50,44.285713 0 1 1 100.0000004,0 z"
       sodipodi:ry="44.285713"
       sodipodi:rx="50"
       sodipodi:cy="319.50504"
       sodipodi:cx="-47.142857"
       id="path3798"
       style="fill:#000000;fill-opacity:1"
       sodipodi:type="arc" />
    <rect
       style="fill:#000000;fill-opacity:1"
       id="rect4086"
       width="346.42856"
       height="22.857143"
       x="235.57143"
       y="628.64789" />
    <rect
       y="665.2193"
       x="229.14285"
       height="22.857143"
       width="359.28571"
       id="rect4099"
       style="fill:#000000;fill-opacity:1" />
    <path
       style="fill:#000000;fill-opacity:1;stroke:none"
       d="m 507.88325,579.54004 -0.16261,0.4881 c -0.10638,0.27912 -1.15117,3.54555 -2.27779,7.26725 l -2.00663,6.77915 -7.21302,0.16262 -7.26725,0.16261 5.53179,4.23019 c 3.02767,2.32608 5.59617,4.34629 5.74872,4.44712 l 0.3254,0.16262 -2.00663,6.56222 c -1.08014,3.62083 -2.07935,6.98794 -2.22356,7.42995 l -0.21694,0.75926 0.43387,-0.27117 c 0.25253,-0.15515 2.338,-1.73747 4.66406,-3.52515 2.32607,-1.78767 4.80587,-3.67422 5.47755,-4.17596 l 1.19313,-0.92197 5.80296,4.44713 c 3.1896,2.43036 5.80295,4.36026 5.80295,4.28442 0,-0.0758 -0.97202,-3.39833 -2.16933,-7.37572 -1.19733,-3.9774 -2.14946,-7.24989 -2.11509,-7.26725 0.21257,-0.1036 7.63027,-5.74629 9.32811,-7.10455 l 2.06086,-1.68123 -7.05032,-0.0541 -7.10455,-0.10847 -1.03043,-3.47093 c -0.58558,-1.90371 -1.61256,-5.23573 -2.27779,-7.37571 l -1.24737,-3.85056 z"
       id="path4127"
       inkscape:connector-curvature="0"
       sodipodi:nodetypes="cccccccccccccscccssccccccccc" />
    <path
       style="fill:#000000;fill-opacity:1;stroke:none"
       d="m 309.22699,579.64851 -2.00663,6.72492 c -1.10115,3.68576 -2.11639,6.94161 -2.27779,7.26725 l -0.3254,0.59656 -6.99609,0 -6.99608,0.0541 1.35583,1.19313 c 0.74434,0.65941 3.1903,2.54193 5.42332,4.23019 2.23304,1.68826 4.18472,3.22866 4.33866,3.36246 l 0.27116,0.21702 -2.06086,6.72492 c -1.13575,3.69808 -2.17714,6.99584 -2.27779,7.32148 -0.1,0.32564 -0.10309,0.59657 0,0.59657 0.14109,0 7.27429,-5.41414 11.22627,-8.51462 l 0.37964,-0.27116 5.80295,4.33865 c 3.18976,2.40648 5.80295,4.32356 5.80295,4.2302 0,-0.0934 -0.91846,-3.39749 -2.06086,-7.32149 l -2.06086,-7.15878 0.59656,-0.43387 c 1.49372,-1.07993 8.56677,-6.59981 9.65352,-7.53842 l 1.13889,-0.97619 -7.10455,-0.0541 -7.10455,0 -1.95239,-6.23682 c -1.05534,-3.4341 -2.09544,-6.74418 -2.33203,-7.32148 l -0.43387,-1.03043 z"
       id="path4125"
       inkscape:connector-curvature="0"
       sodipodi:nodetypes="cccccccsccccscccsccccccccccc" />
    <path
       style="fill:#000000;fill-opacity:1;stroke:none"
       d="m 408.74494,580.02814 -0.21693,0.27117 c -0.13468,0.14283 -1.04994,2.85645 -2.00663,6.01988 -0.95669,3.16344 -1.92453,6.23228 -2.1151,6.83339 l -0.3254,1.08466 -7.10455,0.10847 -7.15878,0.0541 5.64025,4.39289 c 3.08991,2.41909 5.63679,4.57056 5.64026,4.77252 0.003,0.20196 -0.94652,3.39871 -2.06087,7.10455 -1.11434,3.70584 -2.00513,6.89517 -2.00662,7.05032 -0.002,0.15515 0.54953,-0.164 1.24736,-0.70503 0.69781,-0.54096 3.33037,-2.53956 5.80295,-4.44713 l 4.50136,-3.47092 5.64025,4.28442 5.64026,4.28443 0.0541,-0.3254 c 0.0526,-0.15776 -0.78916,-3.4087 -1.89816,-7.21302 -1.10898,-3.80431 -1.99005,-6.92415 -1.95239,-6.94185 0.2309,-0.10812 6.56588,-5.01596 8.67731,-6.72492 l 2.54896,-2.06078 -7.10455,-0.16261 -7.05032,-0.16261 -2.22356,-7.05032 -2.16933,-6.99608 z"
       id="rect4119"
       inkscape:connector-curvature="0"
       sodipodi:nodetypes="ccsccccccscccccccscccccccc" />
    <path
       style="fill:none;stroke:none"
       d="m 248.303,805.79077 318.83044,0"
       id="path4167"
       inkscape:connector-curvature="0"
       sodipodi:nodetypes="cc" />
  </g>
</svg>
